<?xml version="1.0" encoding="UTF-8" standalone="no"?>
<!-- Created with Inkscape (http://www.inkscape.org/) -->

<svg
   xmlns:dc="http://purl.org/dc/elements/1.1/"
   xmlns:cc="http://creativecommons.org/ns#"
   xmlns:rdf="http://www.w3.org/1999/02/22-rdf-syntax-ns#"
   xmlns:svg="http://www.w3.org/2000/svg"
   xmlns="http://www.w3.org/2000/svg"
   xmlns:sodipodi="http://sodipodi.sourceforge.net/DTD/sodipodi-0.dtd"
   xmlns:inkscape="http://www.inkscape.org/namespaces/inkscape"
   width="1000"
   height="1000"
   viewBox="0 0 264.58333 264.58334"
   version="1.1"
   id="svg8"
   inkscape:export-filename="D:\WEBSITE\FILE\EDUCATION\253-Free Graduation Hat SVG\253-Free Graduation Hat SVG.png"
   inkscape:export-xdpi="96"
   inkscape:export-ydpi="96"
   inkscape:version="0.92.0 r15299"
   sodipodi:docname="253-Free Graduation Hat SVG.svg">
  <defs
     id="defs2" />
  <sodipodi:namedview
     id="base"
     pagecolor="#ffffff"
     bordercolor="#666666"
     borderopacity="1.0"
     inkscape:pageopacity="0.0"
     inkscape:pageshadow="2"
     inkscape:zoom="0.35"
     inkscape:cx="350"
     inkscape:cy="560"
     inkscape:document-units="mm"
     inkscape:current-layer="layer1"
     showgrid="false"
     units="px"
     inkscape:window-width="1366"
     inkscape:window-height="706"
     inkscape:window-x="-8"
     inkscape:window-y="-8"
     inkscape:window-maximized="1" />
  <metadata
     id="metadata5">
    <rdf:RDF>
      <cc:Work
         rdf:about="">
        <dc:format>image/svg+xml</dc:format>
        <dc:type
           rdf:resource="http://purl.org/dc/dcmitype/StillImage" />
        <dc:title></dc:title>
      </cc:Work>
    </rdf:RDF>
  </metadata>
  <g
     inkscape:label="Layer 1"
     inkscape:groupmode="layer"
     id="layer1"
     transform="translate(0,-32.41665)">
    <path
       style="fill:#000000;stroke-width:0.27914751"
       d="m 58.052175,267.62736 c -0.71711,-0.28822 -0.79482,-0.622 -0.25008,-1.07411 0.20791,-0.17254 2.60784,-1.06883 5.33318,-1.99174 2.72533,-0.92293 6.29231,-2.36456 7.92662,-3.20362 3.53734,-1.81608 7.29826,-4.19132 7.29826,-4.60926 0,-0.20683 -1.10362,-0.24072 -3.58052,-0.10996 -4.71664,0.24901 -7.96446,-0.18858 -9.05091,-1.21945 -0.42221,-0.40061 -0.76765,-0.83691 -0.76765,-0.96955 0,-0.59626 2.08206,-0.98981 6.14124,-1.16083 4.72224,-0.19893 11.0887,-1.11777 11.6739,-1.68481 0.30183,-0.29248 0.0748,-0.46963 -1.25617,-0.98014 -0.89352,-0.34273 -2.41617,-0.94304 -3.38369,-1.33404 -3.3125,-1.33867 -4.34801,-4.16533 -2.38188,-6.50193 1.12962,-1.34249 2.62987,-1.9592 5.20882,-2.1412 3.25942,-0.23002 6.01342,0.5196 10.99796,2.99358 l 3.97052,1.97068 0.82994,-0.61361 c 0.45648,-0.33749 1.29982,-0.68998 1.87411,-0.78333 l 1.04416,-0.16972 0.917295,-3.06874 c 1.47754,-4.94301 1.55928,-4.42119 -0.800125,-5.1085 -5.0778,-1.47922 -31.53654,-8.07326 -34.39252,-8.5713 -6.5494,-1.14212 -11.2741,-5.27756 -15.36425,-13.44804 -2.52881,-5.05154 -3.6197,-9.60434 -3.5993,-15.02153 0.0144,-3.81789 0.32559,-5.80932 1.52684,-9.77016 1.46758,-4.83898 3.57266,-8.03284 6.8234,-10.35252 3.25636,-2.32369 6.53957,-3.25198 9.36512,-2.64788 0.82637,0.17668 5.45941,1.58326 10.29564,3.12575 23.30013,7.43143 42.500075,13.36399 43.250735,13.36399 0.20794,0 1.01915,-0.41884 1.8027,-0.93075 3.36672,-2.19957 6.39204,-2.50459 10.66768,-1.07551 1.36463,0.4561 3.48608,1.01532 4.71432,1.24272 2.97434,0.55064 4.65184,1.3863 6.42159,3.19894 l 1.46925,1.50486 5.82475,0.25162 c 8.34902,0.36065 30.63499,1.05208 40.43902,1.25461 8.18925,0.16918 8.41763,0.15898 10.32846,-0.46119 4.4974,-1.45966 8.11558,-0.4974 11.56201,3.07496 3.81257,3.95188 6.57925,10.2732 7.54427,17.2372 0.47574,3.4331 0.81633,9.65546 0.56474,10.31722 -0.12509,0.329 -0.48247,0.66488 -0.79418,0.74639 -1.20616,0.31542 -1.41253,-0.2461 -2.54205,-6.91667 -1.51999,-8.97658 -2.50958,-12.16238 -5.00551,-16.11442 -3.88656,-6.15392 -9.06643,-6.97193 -13.54137,-2.13847 -0.84702,0.91488 -2.03231,2.50815 -2.63399,3.54059 -1.2967,2.22511 -2.6261,5.29885 -2.42939,5.61713 0.0768,0.12414 2.5616,0.31586 5.52194,0.42605 5.97821,0.2225 7.52874,0.46347 9.55682,1.48522 2.74832,1.38461 5.40698,4.94654 6.8762,9.21235 1.7898,5.19658 1.7886,13.73123 -0.003,20.44858 -1.56049,5.85127 -4.86637,11.7337 -8.32003,14.80451 -2.66581,2.37031 -6.8507,3.81629 -10.26468,3.54672 -0.99346,-0.0784 -6.33124,-1.51718 -13.11992,-3.53631 -6.29478,-1.87223 -12.44998,-3.702 -13.67823,-4.06615 -2.1487,-0.63705 -10.91815,-3.04641 -32.93941,-9.04991 -5.68065,-1.54868 -10.62949,-2.81571 -10.99742,-2.81561 -0.36794,9e-5 -1.32336,0.43452 -2.12316,0.9654 -2.0343,1.35028 -3.95909,2.05909 -7.6759,2.82665 -1.76561,0.36462 -3.30441,0.66554 -3.41956,0.6687 -0.61325,0.0169 -0.0311,0.56298 1.33942,1.25639 3.51336,1.7776 4.59246,3.1082 4.59246,5.66283 0,2.6007 -1.91451,3.95648 -5.60207,3.96718 -3.22827,0.009 -5.17371,-0.7251 -11.864425,-4.47916 l -1.13636,-0.6376 -1.31347,0.63584 c -1.50077,0.72651 -2.24595,0.64132 -3.48106,-0.39795 -0.45622,-0.38388 -0.9644,-0.69796 -1.1293,-0.69796 -0.47266,0 -8.92343,4.54971 -14.07884,7.57973 -7.21819,4.2424 -10.7099,5.85263 -14.71166,6.78437 -1.9959,0.46473 -5.08962,0.53753 -6.07145,0.14287 z M 200.75682,258.3015 c 1.76604,-0.86404 5.33004,-4.50523 6.80131,-6.94861 1.40573,-2.33454 2.7809,-5.70166 3.5747,-8.75267 0.98066,-3.76925 1.24437,-10.83125 0.53534,-14.3362 -0.58225,-2.87819 -1.79203,-5.86293 -3.17085,-7.823 -1.32416,-1.88239 -2.21033,-2.52252 -3.72125,-2.68813 -2.38128,-0.26099 -3.91983,1.51087 -4.97904,5.73408 -0.48652,1.93982 -0.52835,2.43164 -0.2311,2.71697 0.19963,0.19161 1.74474,0.68386 3.43357,1.09388 4.03923,0.98063 4.15659,1.11429 3.9156,4.45951 -0.42625,5.91671 -1.61256,10.75396 -3.35655,13.68651 -2.1156,3.55745 -2.30511,3.55054 -10.98867,-0.40129 -1.74448,-0.7939 -3.22497,-1.39027 -3.28996,-1.32529 -0.19518,0.19519 0.73332,4.37075 1.4702,6.61167 0.92136,2.80193 3.03361,7.04519 4.0471,8.13012 0.79277,0.84867 0.88004,0.873 2.6284,0.73265 1.14981,-0.0923 2.36298,-0.41649 3.3312,-0.8902 z m -11.00019,-1.79839 c -1.97138,-3.9053 -3.80212,-10.82197 -4.47882,-16.92137 -0.64306,-5.79608 -0.14415,-15.07097 1.12603,-20.9336 1.21703,-5.61725 2.79555,-9.56879 5.79508,-14.50695 0.92883,-1.52916 1.63953,-2.86001 1.57932,-2.95744 -0.0602,-0.0974 -5.73547,-0.2634 -12.61168,-0.36883 -36.14859,-0.55423 -40.21343,-0.72307 -48.51222,-2.01514 -7.29293,-1.13545 -6.89994,-1.12291 -8.63249,-0.27526 -2.66589,1.3043 -8.2482,7.81409 -12.03078,14.02964 l -1.66853,2.74175 0.0296,3.76849 c 0.0163,2.07889 0.23934,5.02005 0.4974,6.55997 0.59579,3.55533 2.04451,9.31762 2.53028,10.06417 0.43094,0.66229 3.3318,1.60798 14.11028,4.60003 7.00106,1.94347 12.40697,3.45842 25.40242,7.11879 7.42853,2.09236 23.88272,6.89558 31.40409,9.16731 2.76356,0.8347 5.30911,1.5295 5.65676,1.54401 l 0.6321,0.0263 -0.82885,-1.64194 z m -75.26682,-0.75075 c 0.589,-0.58899 0.55566,-1.88126 -0.063,-2.44111 -0.94218,-0.85266 -4.83581,-2.45736 -6.93881,-2.85973 -1.15483,-0.22097 -3.16032,-0.40174 -4.45665,-0.40174 -1.94613,0 -2.38821,0.0814 -2.53622,0.46713 -0.1233,0.3213 0.1191,0.71888 0.77642,1.27353 1.26351,1.06615 6.14078,3.46076 8.07393,3.96409 2.13081,0.5548 4.58837,0.55376 5.14429,-0.002 z m -22.597825,-8.16886 0.80547,-0.21542 -0.8657,-0.61643 c -2.62642,-1.87018 -7.35308,-3.40142 -10.49956,-3.40142 -1.21594,0 -1.61818,0.13819 -2.42429,0.83282 l -0.96648,0.83282 0.8809,0.81461 c 0.89333,0.8261 2.99881,1.58725 5.53949,2.00256 1.52749,0.2497 6.24843,0.0932 7.53017,-0.24954 z m 19.268005,-2.99629 c 7.0686,-1.2176 9.07229,-1.73461 9.07229,-2.34093 0,-0.13869 -0.65949,-0.44832 -1.46553,-0.68808 -0.80603,-0.23975 -4.22908,-1.29965 -7.60676,-2.35534 -5.36417,-1.67656 -6.16696,-1.86233 -6.3445,-1.46814 -0.11179,0.24821 -0.58857,2.02149 -1.0595,3.94063 -0.47094,1.91914 -0.92575,3.72157 -1.01069,4.00541 -0.12026,0.40188 -0.0403,0.48162 0.36164,0.36039 0.28384,-0.0856 3.90771,-0.73989 8.05305,-1.45394 z m 90.50489,-1.52831 c 0.49421,-0.98282 1.1512,-2.86303 1.45996,-4.17823 0.73765,-3.14194 1.29361,-8.04095 0.95137,-8.38319 -0.35287,-0.35288 -5.0477,-1.55346 -5.25685,-1.34431 -0.0912,0.0912 -0.23716,2.03526 -0.3244,4.32017 -0.22757,5.96033 0.76847,11.85803 1.93881,11.47995 0.18291,-0.0591 0.73691,-0.91156 1.23111,-1.89439 z m -5.90769,-1.00239 c -0.4025,-1.60369 -0.63486,-7.57288 -0.41135,-10.56754 0.30825,-4.13018 1.125,-8.06182 2.46501,-11.86605 0.59492,-1.68896 1.06363,-3.08348 1.04156,-3.09891 -0.10043,-0.0703 -7.86486,-0.7311 -7.93176,-0.67506 -0.22323,0.18695 -1.49495,5.8173 -1.90338,8.42689 -0.45863,2.93046 -0.77568,12.81863 -0.47407,14.78555 0.12689,0.82755 0.31967,0.95182 3.52678,2.27363 1.8659,0.76903 3.50037,1.41144 3.63217,1.42757 0.13178,0.0161 0.15656,-0.30159 0.0551,-0.70608 z m -87.52192,-11.29763 c -1.10899,-5.27914 -1.12906,-5.361 -1.27787,-5.21218 -0.16276,0.16276 -0.95645,6.49024 -0.95941,7.64869 -0.002,0.81293 0.0962,0.89942 1.46329,1.2874 0.80604,0.22876 1.49984,0.38849 1.54178,0.35496 0.0419,-0.0335 -0.30357,-1.86902 -0.76779,-4.07887 z m -5.20906,-2.16555 c 0.56741,-5.22957 1.2336,-8.23061 2.55765,-11.5218 0.5336,-1.32636 0.97019,-2.72097 0.97019,-3.09912 0,-1.13383 1.3725,-6.21993 2.25784,-8.36689 1.13622,-2.75536 2.4233,-4.98268 4.39989,-7.61411 0.9215,-1.22679 1.63982,-2.26618 1.59626,-2.30974 -0.0435,-0.0435 -1.00781,-0.33279 -2.14277,-0.64276 -2.23711,-0.61095 -10.98507,-3.4177 -29.559615,-9.48408 -21.23831,-6.93635 -19.75083,-6.49441 -21.25813,-6.31589 -4.29262,0.50839 -8.48992,4.39723 -10.13693,9.39195 -2.11431,6.41189 -2.015,14.22742 0.25727,20.24463 2.32721,6.16273 7.01743,12.10082 11.10259,14.05653 0.96308,0.46107 3.32124,1.18768 5.24039,1.61471 1.91914,0.42702 10.27262,2.49374 18.5633,4.59271 8.29068,2.09897 15.208435,3.83116 15.372775,3.84931 0.18352,0.0203 0.48419,-1.67559 0.77929,-4.39545 z m 17.17335,-31.65854 c 0.018,-0.11909 -0.32217,-0.033 -0.75591,0.19129 -0.90071,0.46578 -2.84029,2.51667 -2.84029,3.00329 0,0.33474 3.53779,-2.80795 3.5962,-3.19458 z m 5.48506,-3.39814 c 0.53243,-0.22246 0.96805,-0.5365 0.96805,-0.69787 0,-0.37982 -1.79081,-0.37436 -3.17388,0.01 -1.07829,0.2994 -1.09211,0.63967 -0.0363,0.89362 0.97314,0.23407 1.25128,0.20859 2.24215,-0.20542 z m 6.41143,-17.93242 c -0.61413,-0.0541 -3.31488,-0.41721 -6.00167,-0.80682 -15.17736,-2.2008 -31.076705,-7.42649 -48.990395,-16.1018 -4.4524,-2.15623 -8.61285,-4.2729 -9.24544,-4.70371 -2.68276,-1.82704 -4.68289,-4.81853 -5.57493,-8.33817 -0.71536,-2.82248 -0.42886,-9.09735 0.56732,-12.42565 1.27556,-4.26167 3.56067,-8.65974 6.48017,-12.47218 0.6671,-0.87114 1.21291,-1.71421 1.21291,-1.87349 0,-0.33102 -0.25137,-0.4037 -7.25783,-2.0983 -2.84032,-0.68697 -10.3145,-2.52022 -16.60928,-4.07389 -6.294766,-1.55366 -15.276342,-3.76025 -19.959035,-4.90351 -9.045479,-2.20843 -9.699499,-2.42044 -11.099043,-3.59808 -1.299534,-1.09349 -1.677214,-2.58111 -1.063368,-4.18845 0.265152,-0.694295 0.795866,-1.509165 1.17937,-1.810825 1.545995,-1.21609 7.539783,-3.19885 43.922436,-14.52967 8.28668,-2.58076 15.30459,-4.78735 24.84413,-7.81157 2.84033,-0.90044 10.00046,-3.16668 15.911405,-5.03612 5.91095,-1.86942 14.89253,-4.73135 19.95905,-6.35983 11.55579,-3.71427 10.79005,-3.6675 19.6799,-1.20188 6.31945,1.75272 19.60188,5.23804 41.03468,10.76751 6.37154,1.6438 13.65729,3.52737 16.19055,4.18571 9.37357,2.43597 19.25493,4.99792 23.86711,6.18805 2.61003,0.6735 5.93886,1.53788 7.39741,1.92086 1.45854,0.38298 4.59895,1.20537 6.97869,1.82754 2.37973,0.62215 6.0836,1.65496 8.23083,2.29512 3.59123,1.07066 4.01063,1.26664 5.23401,2.44584 1.18373,1.14096 1.32997,1.41438 1.32997,2.48666 0,2.36257 -1.56013,3.81046 -5.57854,5.177215 -1.11655,0.37976 -2.20158,0.8328 -2.41116,1.00674 -0.60299,0.50042 -1.75776,4.52681 -2.11931,7.38936 -0.25484,2.01758 -0.25456,3.49751 0,6.46256 0.18245,2.11515 0.4152,5.02527 0.51725,6.46694 0.18372,2.59503 0.19761,2.6348 1.39309,3.98083 0.66415,0.74779 1.41743,1.76553 1.67399,2.26164 0.59238,1.14555 0.81913,4.19927 0.41928,5.64705 -0.30175,1.09268 -0.28613,1.13322 0.91572,2.37276 1.52149,1.56925 2.19125,2.89363 2.9792,5.89122 0.67381,2.56336 0.76007,5.2189 0.59124,18.20314 -0.0764,5.87882 -0.12431,6.40512 -0.62808,6.9089 -0.71387,0.71385 -1.61013,0.69132 -2.4105,-0.0606 -0.35474,-0.33326 -0.72737,-0.52352 -0.8281,-0.42281 -0.10068,0.1007 -0.15816,1.03688 -0.12768,2.08038 0.0491,1.68375 -0.0207,1.96859 -0.61904,2.53088 -0.80916,0.76017 -1.76837,0.62071 -2.72347,-0.39595 -0.34837,-0.37084 -0.87102,-0.67425 -1.16141,-0.67425 -0.29037,0 -0.77091,-0.13 -1.0678,-0.2889 -0.46342,-0.24801 -0.60698,-0.14802 -1.01451,0.70657 -0.97557,2.04578 -3.43363,1.36324 -3.43363,-0.95342 0,-0.37481 -0.28271,-0.5547 -1.0695,-0.68051 -0.58821,-0.0941 -1.28167,-0.40547 -1.541,-0.69202 -0.37615,-0.41564 -0.74803,-0.49443 -1.83886,-0.38962 l -1.36737,0.13139 -0.59846,-1.17309 c -0.45114,-0.8843 -0.71441,-1.1282 -1.06948,-0.99079 -1.28374,0.49678 -1.9604,0.46825 -2.53556,-0.1069 -0.81917,-0.81918 -0.7369,-1.71416 0.37037,-4.02874 1.37969,-2.884 1.79193,-4.68054 4.0785,-17.77384 0.35935,-2.05769 0.95206,-4.29107 1.44462,-5.44338 0.71568,-1.67429 0.86362,-2.45431 1.03346,-5.44861 0.16327,-2.87907 0.31688,-3.73231 0.87225,-4.8443 0.72023,-1.44213 1.78866,-2.49029 3.2476,-3.18601 0.4966,-0.23682 0.96013,-0.57963 1.03003,-0.76179 0.0699,-0.18217 -0.18206,-2.70527 -0.55989,-5.60689 -0.81913,-6.29041 -0.88618,-9.78672 -0.24774,-12.91696 0.25971,-1.27336 0.41216,-2.37525 0.33877,-2.44864 -0.0734,-0.0734 -4.76301,1.25074 -10.42139,2.94252 -5.65837,1.69178 -14.91597,4.45378 -20.57243,6.13778 -5.65647,1.684 -10.34852,3.12586 -10.42679,3.20412 -0.0783,0.0783 0.64451,1.05649 1.60619,2.17383 6.6321,7.70572 9.63326,16.98441 8.05881,24.91543 -0.7913,3.98605 -3.80716,7.68264 -8.08554,9.91061 -1.2994,0.67666 -3.82762,2.08821 -5.61827,3.13677 -10.30844,6.03634 -26.7034,12.98116 -38.42597,16.27706 -7.67686,2.15842 -16.64135,3.9411 -18.75373,3.72939 -0.2303,-0.0231 -0.92119,-0.0863 -1.53532,-0.14042 z m 15.9114,-51.99361 c 6.44831,-0.93437 13.79686,-2.0119 16.33013,-2.39449 2.53326,-0.38259 7.18107,-1.07888 10.32846,-1.54732 3.14739,-0.46843 6.91588,-1.02948 8.37442,-1.24677 4.6586,-0.69403 5.67428,-1.18834 5.08759,-2.47601 -0.37386,-0.82051 -1.39302,-0.9904 -3.89884,-0.6499 -2.17202,0.29513 -20.15277,3.01098 -37.6175,5.68182 -13.25778,2.02748 -14.72849,2.12228 -21.21521,1.36745 -5.64063,-0.65637 -10.16664,-1.13953 -21.05702,-2.24791 -5.307065,-0.54013 -11.407835,-1.16325 -13.557265,-1.38472 -9.08743,-0.93634 -11.48606,-1.04421 -12.42479,-0.55878 -1.0108,0.5227 -1.00887,1.10118 0.006,1.85826 0.75399,0.56235 2.18166,0.77133 10.04582,1.47053 3.77702,0.33581 16.761465,1.57218 36.847485,3.5086 1.61207,0.15542 3.30789,0.33439 3.76849,0.39771 2.41072,0.33147 8.09879,-0.20146 18.98202,-1.77847 z"
       id="path4496"
       inkscape:connector-curvature="0" />
  </g>
</svg>
