<?xml version="1.0" encoding="utf-8"?>
<!-- Svg Vector Icons : http://www.onlinewebfonts.com/icon -->
<!DOCTYPE svg PUBLIC "-//W3C//DTD SVG 1.1//EN" "http://www.w3.org/Graphics/SVG/1.1/DTD/svg11.dtd">
<svg version="1.1" xmlns="http://www.w3.org/2000/svg" xmlns:xlink="http://www.w3.org/1999/xlink" x="0px" y="0px" viewBox="0 0 1000 1000" enable-background="new 0 0 1000 1000" xml:space="preserve">
<metadata> Svg Vector Icons : http://www.onlinewebfonts.com/icon </metadata>
<g><path d="M990,500c0,269.5-220.5,490-490,490S10,769.5,10,500S230.5,10,500,10S990,230.5,990,500z M514,738l213.5-196c31.5-28,49-66.5,49-108.5S759,353,727.5,325c-28-24.5-66.5-38.5-105-38.5s-77,14-105,38.5L500,346l-17.5-17.5c-28-24.5-66.5-38.5-105-38.5s-77,14-105,38.5c-31.5,28-49,66.5-49,108.5c0,42,17.5,80.5,49,108.5l213.5,196c3.5,3.5,10.5,7,14,7C503.5,745,510.5,741.5,514,738z"/></g>
</svg>