<?xml version="1.0" encoding="utf-8"?>
<!-- Svg Vector Icons : http://www.onlinewebfonts.com/icon -->
<!DOCTYPE svg PUBLIC "-//W3C//DTD SVG 1.1//EN" "http://www.w3.org/Graphics/SVG/1.1/DTD/svg11.dtd">
<svg version="1.1" xmlns="http://www.w3.org/2000/svg" xmlns:xlink="http://www.w3.org/1999/xlink" x="0px" y="0px" viewBox="0 0 1000 1000" enable-background="new 0 0 1000 1000" xml:space="preserve">
<metadata> Svg Vector Icons : http://www.onlinewebfonts.com/icon </metadata>
<g><path d="M500,990c-65.9,0-129.9-13-190.3-38.7c-58.3-24.8-110.7-60.2-155.8-105.2C108.8,801,73.4,748.6,48.7,690.3C23,629.9,10,565.9,10,500c0-65.9,13-129.9,38.7-190.3c24.8-58.3,60.2-110.7,105.2-155.8c45.1-45.1,97.5-80.5,155.8-105.2C370.1,23,434.1,10,500,10c65.6,0,129.4,11.5,189.6,34.3c58.2,22,110.6,53.5,155.7,93.5c45.2,40.2,80.8,87,105.7,139.1c25.9,54.1,39,111.6,39,170.7c0,74.5-29.2,144.8-82.3,197.9c-53.1,53.1-123.3,82.3-197.9,82.3h-94.4c-34.7,0-60.8,26.1-60.8,60.8c0,15.5,5.6,29.7,15.7,39.8c16.9,16.9,26.2,40,26.2,65.1c0,26.3-9.9,50.8-27.9,68.7C550.7,980.1,526.3,990,500,990z M500,45.8c-61,0-120.4,12.1-176.3,35.8c-54,23-102.7,55.8-144.5,97.6c-41.8,41.8-74.7,90.4-97.6,144.5C57.8,379.6,45.8,439,45.8,500c0,61,12.1,120.4,35.8,176.3c23,54,55.8,102.7,97.6,144.5c41.8,41.8,90.4,74.7,144.5,97.6c56,23.8,115.3,35.8,176.3,35.8c34.7,0,60.8-26.1,60.8-60.8c0-15.5-5.6-29.7-15.7-39.8c-16.9-16.9-26.2-40-26.2-65.1c0-26.3,9.9-50.7,27.9-68.7c18-18,42.4-27.9,68.7-27.9h94.4c65,0,126.3-25.5,172.6-71.8c46.3-46.3,71.8-107.6,71.8-172.6c0-53.7-11.9-105.9-35.5-155.2c-22.8-47.8-55.5-90.8-97.2-127.8c-41.8-37.2-90.4-66.4-144.6-86.8C620.8,56.5,561.3,45.8,500,45.8z M788.5,517.9c-26.3,0-50.7-9.9-68.7-27.9c-18-18-27.9-42.4-27.9-68.7c0-26.3,9.9-50.7,27.9-68.7c18-18,42.4-27.9,68.7-27.9c26.3,0,50.7,9.9,68.7,27.9c18,18,27.9,42.4,27.9,68.7c0,26.3-9.9,50.7-27.9,68.7C839.3,508,814.9,517.9,788.5,517.9z M788.5,360.5c-34.7,0-60.8,26.1-60.8,60.8c0,34.7,26.1,60.8,60.8,60.8c34.7,0,60.8-26.1,60.8-60.8C849.3,386.7,823.2,360.5,788.5,360.5z M211.5,517.9c-26.3,0-50.8-9.9-68.7-27.9c-18-18-27.9-42.4-27.9-68.7c0-26.3,9.9-50.7,27.9-68.7c18-18,42.4-27.9,68.7-27.9c26.3,0,50.7,9.9,68.7,27.9c18,18,27.9,42.4,27.9,68.7c0,26.3-9.9,50.7-27.9,68.7C262.2,508,237.8,517.9,211.5,517.9z M211.5,360.5c-34.7,0-60.8,26.1-60.8,60.8c0,34.7,26.1,60.8,60.8,60.8c34.7,0,60.8-26.1,60.8-60.8C272.3,386.7,246.1,360.5,211.5,360.5z M631.1,308.1c-26.3,0-50.7-9.9-68.7-27.9c-18-18-27.9-42.4-27.9-68.7c0-26.3,9.9-50.7,27.9-68.7c18-18,42.4-27.9,68.7-27.9c26.3,0,50.8,9.9,68.7,27.9c18,18,27.9,42.4,27.9,68.7c0,26.3-9.9,50.7-27.9,68.7C681.9,298.2,657.5,308.1,631.1,308.1z M631.1,150.7c-34.7,0-60.8,26.1-60.8,60.8c0,34.7,26.1,60.8,60.8,60.8c34.7,0,60.8-26.1,60.8-60.8C691.9,176.8,665.8,150.7,631.1,150.7z M368.9,308.1c-26.3,0-50.7-9.9-68.7-27.9c-18-18-27.9-42.4-27.9-68.7c0-26.3,9.9-50.7,27.9-68.7c18-18,42.4-27.9,68.7-27.9c26.3,0,50.7,9.9,68.7,27.9c18,18,27.9,42.4,27.9,68.7c0,26.3-9.9,50.7-27.9,68.7C419.6,298.2,395.2,308.1,368.9,308.1z M368.9,150.7c-34.7,0-60.8,26.1-60.8,60.8c0,34.7,26.1,60.8,60.8,60.8s60.8-26.1,60.8-60.8C429.7,176.8,403.5,150.7,368.9,150.7z"/></g>
</svg>