<?xml version="1.0" encoding="utf-8"?>
<!-- Svg Vector Icons : http://www.onlinewebfonts.com/icon -->
<!DOCTYPE svg PUBLIC "-//W3C//DTD SVG 1.1//EN" "http://www.w3.org/Graphics/SVG/1.1/DTD/svg11.dtd">
<svg version="1.1" xmlns="http://www.w3.org/2000/svg" xmlns:xlink="http://www.w3.org/1999/xlink" x="0px" y="0px" viewBox="0 0 1000 1000" enable-background="new 0 0 1000 1000" xml:space="preserve">
<metadata> Svg Vector Icons : http://www.onlinewebfonts.com/icon </metadata>
<g><path d="M810.6,797.3c16.8,0,30.5-13.9,30.5-31.1s-13.7-31.1-30.5-31.1c-16.8,0-30.5,13.9-30.5,31.1S793.8,797.3,810.6,797.3z"/><path d="M945.6,295.6H675.5c-24.5,0-44.4,20.3-44.4,45.3v463.7c0,25,19.9,45.3,44.4,45.3h270.1c24.5,0,44.4-20.3,44.4-45.3V340.9C990,315.9,970.1,295.6,945.6,295.6z M956.2,804.6c0,6-4.7,10.9-10.6,10.9H675.5c-5.8,0-10.6-4.9-10.6-10.9V722h291.2V804.6z M956.2,685.2H665V340.9c0-6,4.7-10.9,10.6-10.9h270.1c5.8,0,10.6,4.9,10.6,10.9L956.2,685.2L956.2,685.2z"/><path d="M50.6,190.6h803.6v91h44V150H10v594.2h321.3V809H211.6v40.5h401.6V809h-36.4v-64.8h36.4v-40.5H50.6V190.6z"/></g>
</svg>