<?xml version="1.0" encoding="utf-8"?>
<!-- Svg Vector Icons : http://www.onlinewebfonts.com/icon -->
<!DOCTYPE svg PUBLIC "-//W3C//DTD SVG 1.1//EN" "http://www.w3.org/Graphics/SVG/1.1/DTD/svg11.dtd">
<svg version="1.1" xmlns="http://www.w3.org/2000/svg" xmlns:xlink="http://www.w3.org/1999/xlink" x="0px" y="0px" viewBox="0 0 1000 1000" enable-background="new 0 0 1000 1000" xml:space="preserve">
<metadata> Svg Vector Icons : http://www.onlinewebfonts.com/icon </metadata>
<g><g transform="translate(0.000000,511.000000) scale(0.100000,-0.100000)"><path d="M813.2,4980.6c-101.8-55.7-96.1,96.1-98-2985.9c0-3118.5-5.8-2947.5,105.7-2997.4c38.4-17.3,532.2-23.1,2017.5-23.1h1969.4v-589.9v-591.8L3651.2-3364.1C2494.5-4520.8,2492.5-4522.7,2492.5-4601.5c0-136.4,146-228.7,265.2-169.1c23.1,11.5,493.8,472.7,1047.2,1024.1l1003,1001v-916.5c0-983.8,0-993.4,98-1045.2c67.3-34.6,121-34.6,188.3,0c98,51.9,98,61.5,98,1045.2v916.5l1004.9-1001c551.4-551.4,1022.2-1012.6,1045.3-1024.1c69.2-34.6,136.4-23,201.7,34.6c51.9,46.1,63.4,69.2,63.4,134.5c0,78.8-1.9,80.7-1158.6,1237.4L5192.1-2207.4v591.8v589.9h1969.4c1485.2,0,1979.1,5.8,2017.5,23.1c111.4,50,105.7-121.1,105.7,2993.6c0,3114.6,5.8,2943.6-105.7,2993.6C9102.2,5021,878.6,5017.1,813.2,4980.6z M8900.5,2087V-449.3H5000H1099.5V2087v2536.3H5000h3900.5V2087z"/><path d="M6083.7,4043c-9.6-15.4,51.9-86.5,171-197.9c101.8-94.2,186.4-180.6,186.4-192.1c-1.9-9.6-201.7-226.7-447.7-478.4l-447.7-459.2L5015.4,3015c-292.1,165.2-547.6,301.7-570.7,301.7c-40.4,0-213.3-172.9-1074.1-1066.4c-328.6-340.1-407.3-432.3-407.3-474.6c0-65.3,74.9-121,138.3-103.8c25,5.8,338.2,317,697.5,691.7c359.3,374.7,662.9,682.1,674.4,682.1c9.6,1.9,255.5-132.6,543.8-295.9c288.2-163.3,539.9-297.8,559.1-297.8c19.2,0,242.1,213.3,538,518.8l503.4,516.8l194.1-180.6c107.6-99.9,201.7-182.5,209.4-182.5c19.2,0,21.1,587.9,3.8,793.5l-13.4,148h-457.3C6220.1,4066,6093.3,4060.3,6083.7,4043z"/><path d="M6368.1,2648c-19.2-13.4-23.1-288.2-19.2-1312.3l5.8-1295h326.6h326.6v1306.6v1306.6l-307.4,3.8C6531.4,2661.5,6381.5,2655.7,6368.1,2648z"/><path d="M4125.8,2121.6c-5.8-13.4-7.7-488-5.8-1052.9l5.8-1028h326.6H4779l5.8,1035.6c3.8,816.6,0,1039.5-19.2,1052.9C4723.3,2156.1,4135.4,2148.5,4125.8,2121.6z"/><path d="M5234.4,959.1l5.8-918.4h326.6h326.6l5.8,918.4l3.8,916.5h-336.3h-336.2L5234.4,959.1z"/><path d="M3005.6,699.7l5.8-659H3338h326.6V694v653.3l-332.4,5.8l-330.5,3.8L3005.6,699.7z"/></g></g>
</svg>